<?xml version="1.0" encoding="iso-8859-1"?>
<!-- Generator: Adobe Illustrator 16.0.0, SVG Export Plug-In . SVG Version: 6.00 Build 0)  -->
<!DOCTYPE svg PUBLIC "-//W3C//DTD SVG 1.1//EN" "http://www.w3.org/Graphics/SVG/1.1/DTD/svg11.dtd">
<svg version="1.1" id="Capa_1" xmlns="http://www.w3.org/2000/svg" xmlns:xlink="http://www.w3.org/1999/xlink" x="0px" y="0px"
	 width="47.854px" height="47.854px" viewBox="0 0 47.854 47.854" style="enable-background:new 0 0 47.854 47.854;"
	 xml:space="preserve">
<g>
	<g id="Pause">
		<path d="M23.939,47.854h-0.015C10.737,47.854,0.004,37.122,0,23.931C0.004,10.735,10.738,0,23.929,0
			C30.32,0,36.33,2.489,40.85,7.008c4.519,4.52,7.006,10.527,7.004,16.917c0.002,6.39-2.483,12.398-7,16.919
			S30.33,47.854,23.939,47.854z M23.929,2C11.841,2,2.004,11.838,2,23.931c0.004,12.088,9.839,21.922,21.925,21.922h0.015
			c5.856,0,11.36-2.28,15.5-6.424c4.14-4.143,6.418-9.647,6.414-15.505c0.002-5.855-2.277-11.361-6.418-15.503
			C35.293,4.281,29.787,2,23.929,2z"/>
		<path d="M23.915,43.284h-0.003c-5.173-0.001-10.035-2.015-13.691-5.671c-3.656-3.656-5.669-8.519-5.668-13.688
			C4.55,13.253,13.233,4.568,23.909,4.565c0.001,0,0.001,0,0.002,0c5.171,0,10.032,2.014,13.69,5.671
			c3.656,3.657,5.67,8.519,5.67,13.688s-2.013,10.03-5.67,13.688C33.945,41.271,29.084,43.284,23.915,43.284z M23.911,6.565
			c-0.001,0-0.001,0-0.002,0c-9.573,0.003-17.359,7.79-17.357,17.36c-0.001,4.638,1.804,8.996,5.082,12.274
			c3.278,3.277,7.639,5.084,12.277,5.085l0.003,1v-1c4.636,0,8.995-1.806,12.273-5.086c3.278-3.279,5.084-7.638,5.082-12.273
			c0.002-4.636-1.805-8.995-5.084-12.274C32.907,8.371,28.547,6.565,23.911,6.565z"/>
		<g>
			<path d="M16.808,31.491c-0.552,0-1-0.447-1-1V16.868c0-0.553,0.448-1,1-1c0.552,0,1,0.447,1,1v13.623
				C17.808,31.044,17.36,31.491,16.808,31.491z"/>
			<path d="M21.442,31.491c-0.552,0-1-0.447-1-1V16.862c0-0.553,0.448-1,1-1c0.552,0,1,0.447,1,1v13.629
				C22.442,31.044,21.995,31.491,21.442,31.491z"/>
			<path d="M19.132,33.798c-1.824,0-3.309-1.483-3.309-3.307c0-0.554,0.448-1,1-1c0.552,0,1,0.446,1,1
				c0,0.721,0.587,1.307,1.309,1.307c0.723,0,1.311-0.586,1.311-1.307c0-0.554,0.448-1,1-1c0.552,0,1,0.446,1,1
				C22.442,32.314,20.958,33.798,19.132,33.798z"/>
			<path d="M21.442,17.774c-0.552,0-1-0.447-1-1c0-0.722-0.588-1.31-1.311-1.31c-0.722,0-1.309,0.588-1.309,1.31
				c0,0.553-0.448,1-1,1c-0.552,0-1-0.447-1-1c0-1.825,1.484-3.31,3.309-3.31c1.826,0,3.311,1.484,3.311,3.31
				C22.442,17.327,21.995,17.774,21.442,17.774z"/>
		</g>
		<g>
			<path d="M25.964,31.491c-0.552,0-1-0.447-1-1V16.868c0-0.553,0.448-1,1-1s1,0.447,1,1v13.623
				C26.964,31.044,26.516,31.491,25.964,31.491z"/>
			<path d="M30.6,31.491c-0.552,0-1-0.447-1-1V16.862c0-0.553,0.448-1,1-1c0.553,0,1,0.447,1,1v13.629
				C31.6,31.044,31.152,31.491,30.6,31.491z"/>
			<path d="M28.289,33.798c-1.825,0-3.311-1.483-3.311-3.307c0-0.554,0.448-1,1-1c0.553,0,1,0.446,1,1
				c0,0.721,0.588,1.307,1.311,1.307s1.311-0.586,1.311-1.307c0-0.554,0.448-1,1-1c0.553,0,1,0.446,1,1
				C31.6,32.314,30.113,33.798,28.289,33.798z"/>
			<path d="M30.6,17.774c-0.552,0-1-0.447-1-1c0-0.722-0.588-1.31-1.311-1.31s-1.311,0.588-1.311,1.31c0,0.553-0.447,1-1,1
				c-0.552,0-1-0.447-1-1c0-1.825,1.485-3.31,3.311-3.31c1.824,0,3.311,1.484,3.311,3.31C31.6,17.327,31.152,17.774,30.6,17.774z"/>
		</g>
	</g>
	<g>
	</g>
	<g>
	</g>
	<g>
	</g>
	<g>
	</g>
	<g>
	</g>
	<g>
	</g>
	<g>
	</g>
	<g>
	</g>
	<g>
	</g>
	<g>
	</g>
	<g>
	</g>
	<g>
	</g>
	<g>
	</g>
	<g>
	</g>
	<g>
	</g>
</g>
<g>
</g>
<g>
</g>
<g>
</g>
<g>
</g>
<g>
</g>
<g>
</g>
<g>
</g>
<g>
</g>
<g>
</g>
<g>
</g>
<g>
</g>
<g>
</g>
<g>
</g>
<g>
</g>
<g>
</g>
</svg>
