<?xml version="1.0" encoding="iso-8859-1"?>
<!-- Generator: Adobe Illustrator 19.1.0, SVG Export Plug-In . SVG Version: 6.00 Build 0)  -->
<svg version="1.1" id="Capa_1" xmlns="http://www.w3.org/2000/svg" xmlns:xlink="http://www.w3.org/1999/xlink" x="0px" y="0px"
	 viewBox="0 0 530.91 530.91" style="enable-background:new 0 0 530.91 530.91;" xml:space="preserve">
<g>
	<g>
		<path d="M209.466,195.955c0,49.229,0,98.459,0,147.688c0,15.444,24.132,15.444,24.132,0c0-49.229,0-98.459,0-147.688
			C233.598,180.51,209.466,180.51,209.466,195.955L209.466,195.955z"/>
		<path d="M305.029,195.955c0,49.229,0,98.459,0,147.688c0,15.444,24.132,15.444,24.132,0c0-49.229,0-98.459,0-147.688
			C329.161,180.51,305.029,180.51,305.029,195.955L305.029,195.955z"/>
		<path d="M265.452,530.907C118.73,530.907,0,411.212,0,265.455C0,118.732,119.695,0.003,265.452,0.003
			c146.723,0,265.452,119.695,265.452,265.452C531.87,412.178,412.175,530.907,265.452,530.907z M265.452,23.17
			c-133.209,0-241.32,108.111-241.32,241.32s108.111,241.32,241.32,241.32s241.32-108.111,241.32-241.32
			C507.738,132.246,399.626,23.17,265.452,23.17z"/>
	</g>
	<g>
	</g>
	<g>
	</g>
	<g>
	</g>
	<g>
	</g>
	<g>
	</g>
	<g>
	</g>
	<g>
	</g>
	<g>
	</g>
	<g>
	</g>
	<g>
	</g>
	<g>
	</g>
	<g>
	</g>
	<g>
	</g>
	<g>
	</g>
	<g>
	</g>
</g>
<g>
</g>
<g>
</g>
<g>
</g>
<g>
</g>
<g>
</g>
<g>
</g>
<g>
</g>
<g>
</g>
<g>
</g>
<g>
</g>
<g>
</g>
<g>
</g>
<g>
</g>
<g>
</g>
<g>
</g>
</svg>
